<svg xmlns="http://www.w3.org/2000/svg" version="1.1" xmlns:xlink="http://www.w3.org/1999/xlink" xmlns:svgjs="http://svgjs.com/svgjs" width="1440" height="560" preserveAspectRatio="none" viewBox="0 0 1440 560"><g mask="url(&quot;#SvgjsMask1026&quot;)" fill="none"><rect width="1440" height="560" x="0" y="0" fill="url(#SvgjsLinearGradient1027)"></rect><path d="M1440 0L1252.95 0L1440 142.9z" fill="rgba(255, 255, 255, .1)"></path><path d="M1252.95 0L1440 142.9L1440 285.74L1131.73 0z" fill="rgba(255, 255, 255, .075)"></path><path d="M1131.73 0L1440 285.74L1440 421.33000000000004L489.6700000000001 0z" fill="rgba(255, 255, 255, .05)"></path><path d="M489.6700000000001 0L1440 421.33000000000004L1440 472.36L323.1500000000001 0z" fill="rgba(255, 255, 255, .025)"></path><path d="M0 560L432.74 560L0 392.91999999999996z" fill="rgba(0, 0, 0, .1)"></path><path d="M0 392.91999999999996L432.74 560L709.1500000000001 560L0 379.81999999999994z" fill="rgba(0, 0, 0, .075)"></path><path d="M0 379.82L709.1500000000001 560L1141.0700000000002 560L0 155.41z" fill="rgba(0, 0, 0, .05)"></path><path d="M0 155.40999999999997L1141.0700000000002 560L1349.2600000000002 560L0 55.98999999999997z" fill="rgba(0, 0, 0, .025)"></path></g><defs><mask id="SvgjsMask1026"><rect width="1440" height="560" fill="#ffffff"></rect></mask><linearGradient x1="50%" y1="100%" x2="50%" y2="0%" gradientUnits="userSpaceOnUse" id="SvgjsLinearGradient1027"><stop stop-color="rgba(68, 23, 66, 1)" offset="0"></stop><stop stop-color="rgba(228, 69, 73, 1)" offset="1"></stop></linearGradient></defs></svg>